<?xml version="1.0" standalone="no"?>
<!DOCTYPE svg PUBLIC "-//W3C//DTD SVG 20010904//EN"
 "http://www.w3.org/TR/2001/REC-SVG-20010904/DTD/svg10.dtd">
<svg version="1.0" xmlns="http://www.w3.org/2000/svg"
 width="501.000000pt" height="501.000000pt" viewBox="0 0 501.000000 501.000000"
 preserveAspectRatio="xMidYMid meet">
<metadata>
Created by potrace 1.11, written by Peter Selinger 2001-2013
</metadata>
<g transform="translate(0.000000,501.000000) scale(0.100000,-0.100000)"
fill="#000000" stroke="none">
<path d="M2339 5006 c-2 -2 -43 -7 -90 -10 -148 -11 -442 -78 -579 -131 -19
-8 -66 -25 -103 -40 -90 -34 -365 -176 -401 -207 -10 -8 -129 -92 -180 -128
-11 -8 -52 -41 -91 -75 -369 -319 -624 -705 -770 -1165 -41 -131 -43 -138 -80
-335 -3 -16 -8 -36 -10 -43 -19 -52 -26 -458 -12 -632 8 -103 10 -114 25 -175
6 -22 13 -60 16 -85 4 -25 13 -66 21 -93 8 -26 12 -47 11 -47 -2 0 12 -44 31
-97 19 -54 39 -113 44 -131 9 -29 35 -91 86 -201 19 -42 144 -264 153 -271 3
-3 18 -25 34 -50 120 -185 341 -422 526 -563 246 -187 501 -320 788 -412 39
-12 72 -21 72 -19 0 1 24 -5 53 -15 30 -10 71 -21 93 -24 21 -3 73 -13 114
-22 97 -21 217 -30 415 -29 154 0 342 11 357 20 4 3 20 7 35 9 93 14 162 27
193 37 19 7 41 13 48 14 117 20 458 163 612 256 19 12 44 26 55 32 26 15 79
49 85 56 3 3 28 21 55 40 28 19 55 39 62 45 6 5 29 24 50 40 20 17 62 53 93
80 30 28 67 61 83 75 40 35 195 213 248 285 24 33 46 62 50 65 13 12 140 222
177 295 100 194 190 442 221 605 6 30 17 89 26 130 41 203 41 668 0 844 -8 34
-17 79 -21 101 -32 201 -163 538 -292 750 -24 39 -48 79 -55 90 -32 53 -181
247 -233 305 -151 165 -297 292 -469 405 -33 22 -61 43 -63 48 -2 4 -7 7 -12
7 -5 0 -46 21 -92 48 -124 70 -276 142 -333 158 -5 1 -37 12 -70 25 -80 29
-214 67 -300 83 -150 30 -182 36 -230 41 -57 7 -441 15 -446 11z m986 -986
c129 -28 241 -74 314 -130 54 -41 160 -151 192 -198 40 -59 87 -154 106 -211
36 -112 47 -282 28 -411 -16 -109 -82 -260 -154 -355 -25 -33 -188 -203 -363
-378 l-316 -317 -581 581 c-320 320 -581 584 -581 588 0 8 656 663 690 689 37
28 174 101 212 113 150 48 319 59 453 29z m-875 -1505 c316 -316 577 -580 578
-585 4 -12 -720 -738 -788 -790 -253 -196 -618 -223 -902 -67 -234 128 -384
350 -416 613 -22 189 18 398 100 517 11 15 16 27 13 27 -20 0 117 146 453 483
207 207 379 377 382 377 3 0 264 -259 580 -575z"/>
</g>
</svg>
